<?xml version="1.0" encoding="utf-8"?>
<!-- Generator: Adobe Illustrator 26.3.1, SVG Export Plug-In . SVG Version: 6.00 Build 0)  -->
<svg version="1.1" xmlns="http://www.w3.org/2000/svg" xmlns:xlink="http://www.w3.org/1999/xlink" x="0px" y="0px"
	 viewBox="0 0 971.7 853.7" style="enable-background:new 0 0 971.7 853.7;" xml:space="preserve">
<style type="text/css">
	.st0{fill:#FAC036;}
	.st1{fill-rule:evenodd;clip-rule:evenodd;fill:#E48C15;}
	.st2{fill:#E48C15;}
	.st3{fill:#41B883;}
	.st4{fill:#34495E;}
</style>
<g id="图层_1" xmlns:serif="http://www.serif.com/">
	<path class="st0" d="M97.5,387.6c97.5,0,187.5,74.6,239,74.6c51,0,125.4-25.7,80.7-122.3c-14-8.3-25.8-20.8-32-38.2
		c-31.9-31.3-81.6-67.5-81.6-67.5S79.6,381.7,14.9,296.6c-35.4-46.7,3.5-85.6,47.7-104.5c76.7-32.7,120.2-57,180.6-107.7
		c41-40.1,102-26.5,133.5-6.8c23.1,14.4,25.2,12.5,25.2,12.5l-4.5,57.1c4-21.6,8.8-44.9,14.9-73.7c8-37.7,65.6-99.1,148.7-51.7
		C698.8,100.2,879,189.7,928.4,296.2c50.1,108,61.6,261,7.8,367.7c-38.5,76.4-117.1,146.5-186.6,171.3
		c-121.8,43.5-340.6,11.5-429.1-105C256.3,645.8,269,578.5,86.2,516.7c0,0-70.3-20.5-73.9-53.6C5.6,401.4,56.2,387.6,97.5,387.6z"/>
	<path class="st1" d="M562.2,98.2l1.4,0l1.4,0.1l1.4,0.1l1.4,0.1l1.4,0.1l1.4,0.1l1.4,0.1l1.5,0.2l1.5,0.2l0.7,0.1l0.8,0.1l1.5,0.2
		l1.5,0.2l1.5,0.2l1.5,0.3l1.5,0.3l1.5,0.3l1.5,0.3l1.5,0.3l1.6,0.3l1.6,0.4l1.6,0.4l1.3,0.3l1.4,0.4l1.6,0.4l1.7,0.5l3.8,1.1
		l0.3,0.1l4.1,1.1l4.9,1.3l5.3,1.5l5.4,1.5l0.3,0.1l6.1,1.5l6.5,1.6l6.7,1.7l7,1.8l4.4,1.1l2.8,0.7l7.4,1.8l7.5,1.9l7.6,1.9l7.6,1.9
		l7.6,2l6.6,1.7l1,0.3l7.5,1.9l7.4,1.9l7.2,1.9l7,1.9l6.7,1.8l6.4,1.8l3.1,0.9l3,0.8l2.9,0.8l2.8,0.8l2.7,0.8l2.6,0.8l2.5,0.7
		l2.4,0.7l2.2,0.7l2.1,0.6l2,0.6l1.8,0.6l1.7,0.6l1.3,0.4l0.2,0.1l1.4,0.5l1.2,0.5l-1.2-0.4l-1.4-0.5l-0.2-0.1l-1.3-0.4l-1.7-0.5
		l-1.8-0.5l-2-0.6l-2.1-0.6l-2.3-0.6l-2.4-0.6l-2.5-0.7l-2.6-0.7l-2.7-0.7L753,145l-2.9-0.7l-3-0.8l-3.1-0.8l-6.5-1.6l-6.8-1.7
		l-7-1.7l-7.2-1.7l-7.4-1.7l-7.5-1.8l-1-0.2l-6.6-1.5l-7.7-1.7l-7.7-1.7l-7.6-1.7l-7.5-1.7l-7.4-1.6l-2.8-0.6l-4.5-1l-7-1.5
		l-6.8-1.4l-6.5-1.4l-6.2-1.3l-0.3-0.1l-5.5-0.9l-5.4-0.9l-4.9-0.8l-4.1-0.7l-0.3-0.1l-3.9-0.6l-1.7-0.2l-1.6-0.2l-1.4-0.2l-1.2-0.1
		l-1.5-0.2l-1.5-0.2l-1.5-0.1l-1.5-0.1l-1.5-0.1l-1.5-0.1l-1.4-0.1l-1.4-0.1l-1.4-0.1l-1.4,0l-1.4,0H575l-0.6,0H573l-1.3,0l-1.3,0
		l-1.3,0.1l-1.3,0.1l-1.3,0.1l-1.3,0.1l-1.3,0.1l-1.2,0.1l-1.2,0.1l-1.2,0.1l-1.2,0.2l-1.2,0.2l-1.2,0.2l-1.1,0.2l-1.1,0.2l-1.1,0.2
		l-1.1,0.2l-1.1,0.2L550,112l-1.1,0.3l-1,0.3l-1,0.3l-0.1,0l-1,0.3l-1,0.3l-1,0.3l-1,0.3l-1,0.3l-1,0.3l-0.9,0.4l-0.9,0.4l-0.9,0.4
		l-0.9,0.4l-0.9,0.4l-0.9,0.4l-0.9,0.4l-0.2,0.1l-0.7,0.3l-0.8,0.4l-0.8,0.4l-0.8,0.5l-0.8,0.5l-0.8,0.5l-0.8,0.5l-0.8,0.5l-0.8,0.5
		l-0.7,0.5l-0.7,0.5l-0.7,0.5l-0.7,0.5l-0.1,0.1l-0.6,0.5l-0.7,0.6l-0.7,0.6l-0.7,0.6l-0.7,0.6l-0.6,0.6l-0.6,0.6l-0.6,0.6l-0.6,0.6
		l-0.6,0.6l-0.6,0.6l-0.6,0.7l-0.6,0.7l-0.6,0.7l-0.5,0.7l-0.5,0.7l-0.5,0.7l-0.5,0.7l-0.5,0.7l-0.5,0.8l-0.5,0.8l-0.5,0.8l-0.5,0.8
		l-0.5,0.8l-0.4,0.8l-0.4,0.8l-0.4,0.8l-0.4,0.8l-0.4,0.8l-0.4,0.9l-0.4,0.9l-0.4,0.9l-0.4,0.9l-0.4,0.9l-0.3,0.9l-0.3,0.9l-0.3,0.9
		l-0.3,0.9l-0.3,0.9l-0.3,1l-0.3,1l-0.3,1l-0.3,1l-0.1,0.5l-0.1,0.5l-0.2,1l-0.2,1l-0.2,1l-0.2,1l-0.2,1.1l-0.2,1.1l-0.2,1.1
		l-0.2,1.1l-0.2,1.1l-0.1,1.1l-0.1,1.1l-0.1,1.1l-0.1,1.1l-0.1,1.1l-0.1,1.1l-0.1,1.2l-0.1,1.2l-0.1,1.2l0,1.2l0,1.2l0,1.2v1.2
		l0,1.2l0.2,15.2l0.2,15.4l0,3.3l0.1,12.1l0.2,15.3l0.1,7.6l0.1,7.5l0.1,7.4l0.1,7.3l0.1,7.2l0.1,7.1l0.2,7l0.2,6.9l0.2,6.7l0.2,6.5
		l0.1,3.2l0.1,3.2l0.1,3.1l0.1,3.1l0.1,3l0.1,2.9l0.1,2.9l0.2,2.8l0.2,2.8l0.2,2.7l0.2,2.6l0.2,2.6l0.2,2.5l0.2,2.5l0.2,2.4l0.2,2.3
		l0.2,2.2l0.2,2.2l0.2,2.1l0.2,2l0.2,1.9l0.2,1.8l0.2,1.8l0.2,1.7l0.3,1.6l0.3,1.5l0.3,1.4l0.1,0.6l0.1,0.6l0.3,1.1l0.3,1.1l0.3,1.1
		l0.3,1.1l0.3,1.1l0.3,1.1l0.4,1.1l0.4,1.1l0.4,1.1l0.4,1.1l0.4,1.1l0.4,1.1l0.5,1.1l0.5,1.1l0.5,1.1l0.5,1l0.5,1l0.5,1l0.6,1l0.6,1
		l0.6,1l0.6,1l0.6,1l0.6,1l0.6,1l0.6,1l0.7,1l0.7,0.9l0.7,0.9l0.7,0.9l0.7,0.9l0.7,0.9l0.7,0.9l0.8,0.9l0.8,0.9l0.8,0.9l0.8,0.8
		l0.8,0.8l0.8,0.8l0.8,0.8l0.8,0.8l0.8,0.8l0.8,0.8l0.8,0.7l0.9,0.7l0.9,0.7l0.9,0.7l0.9,0.7l0.9,0.7l0.9,0.6l0.9,0.6l0.9,0.6
		l0.9,0.6l0.9,0.6l0.9,0.6l0.9,0.5l0.9,0.5l0.9,0.5l0.9,0.5l0.9,0.5l0.9,0.4l0.9,0.4l0.9,0.4l0.9,0.4l0.9,0.4l1,0.4l0.9,0.3l1,0.3
		l0.9,0.3l1,0.3l1,0.3l1,0.2l1,0.2l1,0.2l1,0.2l0.9,0.2l1,0.1l0.4,0.1l0.5,0.1l0.5,0.1l0.5,0l0.5,0l0.5,0l0.5,0l0.5,0l0.5,0l0.5,0
		l0.5,0l0.5,0h0.5l0.5,0l0.5,0l0.5,0l0.5,0l0.5,0l0.5,0l0.5,0l0.5,0l0.5-0.1l0.5-0.1l0.5-0.1l0.5-0.1l0.5-0.1l0.5-0.1l0.5-0.1
		l0.5-0.1l0.5-0.1l0.5-0.1l0.5-0.1l0.5-0.1l0.5-0.1l0.5-0.1l0.5-0.1l0.5-0.1l0.5-0.1l0.5-0.1l0.5-0.2l0.5-0.2l0.5-0.2l0.5-0.2
		l0.5-0.2l0.5-0.2l0.5-0.2l0.5-0.2l0.5-0.2l0.5-0.2l0.5-0.2l0.5-0.2l0.5-0.2l0.5-0.2l0.5-0.2l0.5-0.2l0.5-0.3l0.5-0.3l0.5-0.3
		l0.5-0.3l0.5-0.3l0.5-0.3l0.5-0.3l0.5-0.3l0.5-0.3l0.5-0.3l0.5-0.3l0.5-0.3l0.5-0.3l0.5-0.3l0.5-0.4l0.5-0.4l0.5-0.4l0.5-0.4
		l0.5-0.4l0.5-0.4l0.5-0.4l0.5-0.4l0.5-0.4l0.5-0.4l0.5-0.4l0.5-0.4l0.5-0.5l0.5-0.5l0.5-0.5l0.5-0.5l0.5-0.5l0.5-0.5l0.5-0.5
		l0.5-0.5l0.5-0.5l0.5-0.5l0.5-0.5l0.5-0.6l0.5-0.6l0.5-0.6l0.5-0.6l0.5-0.6l0.5-0.6l0.2-0.2l0.3-0.4l0.5-0.6l0.5-0.6l0.5-0.7
		l0.1-0.1l8.2-5l9.4,2.2l0.1,0.1l5,8.2l-2.2,9.4l-0.1,0.1l-0.6,0.8l-0.6,0.8l-0.6,0.8l-0.4,0.5l-0.2,0.3l-0.6,0.8l-0.6,0.8l-0.6,0.8
		l-0.6,0.7l-0.6,0.7l-0.6,0.7l-0.6,0.7l-0.6,0.7l-0.6,0.7l-0.6,0.7l-0.6,0.7l-0.6,0.7l-0.6,0.7l-0.6,0.6l-0.6,0.6l-0.7,0.6l-0.6,0.6
		l-0.7,0.6l-0.7,0.6l-0.7,0.6l-0.7,0.6l-0.7,0.6l-0.7,0.6l-0.7,0.6l-0.7,0.5l-0.7,0.5l-0.7,0.5l-0.7,0.5l-0.7,0.5l-0.7,0.5l-0.7,0.5
		l-0.7,0.5l-0.7,0.5l-0.7,0.5l-0.7,0.4l-0.7,0.4l-0.7,0.4l-0.7,0.4l-0.7,0.4l-0.7,0.4l-0.7,0.4l-0.7,0.4l-0.7,0.4l-0.7,0.4l-0.7,0.4
		l-0.7,0.3l-0.7,0.3l-0.7,0.3l-0.7,0.3l-0.7,0.3l-0.7,0.3l-0.7,0.3l-0.7,0.3l-0.7,0.3l-0.7,0.3l-0.7,0.2l-0.7,0.2l-0.7,0.2l-0.7,0.2
		l-0.7,0.2l-0.8,0.2l-0.7,0.2l-0.8,0.2l-0.7,0.2l-0.8,0.2l-0.7,0.2L584,463l-0.7,0.1l-0.8,0.1l-0.8,0.1l-0.7,0.1l-0.8,0.1l-0.8,0.1
		l-0.7,0.1l-0.8,0.1l-0.7,0.1l-0.8,0.1l-0.7,0.1l-0.7,0l-0.7,0l-0.8,0l-0.7,0l-0.7,0h-0.7l-0.7,0l-0.7,0l-0.7,0l-0.7,0l-0.7,0
		l-0.7,0l-0.7-0.1l-0.7-0.1l-0.7-0.1l-0.7-0.1l-0.7-0.1l-0.7-0.1l-0.7-0.1l-0.8-0.1l-1.4-0.2l-1.4-0.3l-1.4-0.3l-1.4-0.3l-1.4-0.4
		l-1.4-0.4l-1.4-0.4l-1.4-0.4l-1.4-0.5l-1.4-0.5l-1.4-0.5l-1.3-0.5l-1.3-0.6l-1.3-0.6l-1.3-0.6l-1.3-0.6l-1.3-0.7l-1.3-0.7l-1.3-0.7
		l-1.3-0.7l-1.2-0.7l-1.2-0.8l-1.2-0.8l-1.2-0.8l-1.2-0.8l-1.2-0.8l-1.2-0.9l-1.2-0.9l-1.1-0.9l-1.1-0.9l-1.1-0.9l-1.1-1l-1.1-1
		l-1.1-1l-1.1-1l-1.1-1l-1-1l-1-1.1l-1-1.1l-1-1.1l-1-1.1l-1-1.1l-1-1.1l-0.9-1.1l-0.9-1.2l-0.9-1.2l-0.9-1.2l-0.9-1.2l-0.9-1.2
		l-0.8-1.2l-0.8-1.2l-0.8-1.2l-0.8-1.3l-0.8-1.3l-0.8-1.3l-0.7-1.3l-0.7-1.3l-0.7-1.3l-0.7-1.3l-0.7-1.3l-0.6-1.3l-0.6-1.4l-0.6-1.4
		l-0.6-1.4l-0.6-1.4l-0.5-1.4l-0.5-1.4l-0.5-1.4l-0.5-1.4l-0.5-1.4l-0.4-1.4l-0.4-1.4l-0.4-1.5l-0.4-1.5l-0.4-1.5L487,388l-0.3-1.5
		l-0.2-0.8l-0.2-0.9l-0.3-1.7l-0.3-1.8l-0.3-1.8l-0.2-1.9l-0.2-2l-0.2-2.1l-0.2-2.1l-0.2-2.2l-0.2-2.2v0l-0.2-2.3l-0.2-2.4l-0.2-2.4
		l-0.1-2.5l-0.1-2.6l-0.1-2.6l-0.1-2.7l-0.1-2.7l-0.1-2.8l-0.1-2.9l-0.1-2.9l-0.1-3l-0.1-3l-0.1-3.1l-0.1-3.1l-0.1-3.1l-0.1-3.2
		l0-3.2l-0.1-6.6l-0.1-6.8l0-6.9l0-7l0-7.2l0-7.3l0-7.4l0-7.5l0.1-7.5l0.1-7.6l0.1-15.3l0.1-12.1l0-3.3L483,199l0.2-15.3l0-1.4
		l0-1.4l0.1-1.4l0.1-1.4l0.1-1.4l0.1-1.4l0.1-1.4l0.1-1.3l0.1-1.3l0.1-1.3l0.2-1.3l0.2-1.3l0.2-1.3l0.2-1.3l0.2-1.3l0.2-1.3l0.2-1.3
		l0.3-1.3l0.3-1.2l0.3-1.2l0.3-1.2l0.3-1.2l0.3-1.2l0.2-0.6l0.2-0.5l0.4-1.2l0.4-1.2l0.4-1.2l0.4-1.2l0.4-1.2l0.4-1.1l0.4-1.1
		l0.4-1.1l0.5-1.1l0.5-1.1l0.5-1.1l0.5-1.1l0.5-1.1l0.5-1.1l0.5-1.1l0.6-1l0.6-1l0.6-1l0.6-1l0.6-1l0.6-1l0.6-1l0.7-1l0.7-0.9
		l0.7-0.9l0.7-0.9l0.7-0.9l0.7-0.9l0.7-0.9l0.8-0.9l0.8-0.9l0.8-0.8l0.8-0.8l0.8-0.8l0.8-0.8l0.8-0.8l0.9-0.8l0.9-0.8l0.9-0.7
		l0.9-0.7l0.9-0.7l0.9-0.7l0.8-0.6l0.1-0.1l1-0.7l1-0.6l1-0.6l1-0.6l1-0.6l1-0.6l1-0.6l1-0.5l1.1-0.5l1.1-0.5l1.1-0.5l1.1-0.5
		l0.9-0.4l0.2-0.1l1.1-0.4l1.1-0.4l1.1-0.4l1.1-0.4l1.2-0.4l1.2-0.4l1.2-0.3l1.2-0.3l1.2-0.3l1.2-0.3l1.2-0.3l1.2-0.3l1.2-0.2l0.1,0
		l1.3-0.2l1.3-0.2l1.3-0.2l1.3-0.2l1.3-0.1l1.3-0.1l1.3-0.1l1.3-0.1l1.3-0.1l1.3-0.1l1.3,0l1.4,0h1.4L562.2,98.2z"/>
	<path class="st1" d="M718.4,229.3l5.5,0.1l5.4,0.1l5.3,0.1l5.2,0.1l3.8,0.1l1.3,0l5,0.2l4.8,0.2l4.7,0.2l4.5,0.2l4.4,0.2l4.2,0.2
		l4,0.2l3.8,0.2l5.5,0.3l1.5,0.1l6.1,0.4l5.2,0.3l4.2,0.3l3.1,0.2l1.8,0.1l0.8,0.1l1.5,1.5l-1.5,1.5l-0.8,0.1l-1.8,0.1l-3.1,0.3
		l-4.1,0.3l-5.2,0.4l-6.1,0.5l-1.5,0.1l-5.5,0.4l-3.8,0.3l-4,0.3l-4.2,0.4l-4.3,0.4l-4.5,0.4l-4.7,0.4l-4.8,0.5l-4.9,0.5l-1.3,0.1
		l-3.7,0.3l-5.2,0.5l-5.3,0.5l-5.4,0.5l-5.5,0.5l-1.8,0.2l-3.8,0.4l-5.6,0.5l-5.7,0.6l-5.7,0.6l-5.8,0.6l-1,0.1l-1,0.1l-1,0.1h0
		l-1,0.1l-1,0.2l-1,0.2l-1,0.2l-1,0.2l-1,0.2l-1,0.2l-1,0.2l-0.9,0.2l-0.9,0.2L677,249l-0.9,0.2l-0.9,0.3l-0.9,0.3l-0.9,0.3
		l-0.9,0.3l-0.9,0.3l-0.9,0.3l-0.9,0.3l-0.9,0.3l-0.9,0.3l-0.9,0.3l-0.9,0.3l-0.9,0.3l-0.8,0.3l-0.8,0.4l-0.8,0.4l-0.8,0.4l-0.8,0.4
		l-0.8,0.4l-0.8,0.4l-0.2,0.1l-0.6,0.3l-0.8,0.4l-0.8,0.4l-0.8,0.4l-0.8,0.4l-0.8,0.4l-0.8,0.4l-0.7,0.4l-0.7,0.5l-0.7,0.5l-0.7,0.5
		l-0.7,0.5l-0.7,0.5l-0.7,0.5l-0.7,0.5l-0.7,0.5l-0.7,0.5l-0.7,0.5l-0.7,0.5l-0.6,0.5l-0.6,0.5l-0.6,0.6l-0.6,0.6l-0.6,0.6l-0.6,0.6
		l-0.6,0.6l-0.6,0.6l-0.6,0.6l-0.6,0.6l-0.6,0.6l-0.6,0.6l-0.5,0.6l-0.5,0.6l-0.5,0.6l-0.5,0.6l-0.4,0.5l-0.2,0.2l-0.5,0.6l-0.5,0.7
		l-0.5,0.7l-0.5,0.7l-0.5,0.7l-0.5,0.7l-0.5,0.7l-0.4,0.7l-0.4,0.7l-0.4,0.7l-0.4,0.7l-0.4,0.7l-0.4,0.7l-0.4,0.7l-0.4,0.8l-0.4,0.8
		l-0.4,0.8l-0.4,0.8l-0.3,0.8l-0.3,0.8l-0.3,0.8l-0.3,0.8l-0.3,0.8l-0.3,0.8l-0.3,0.8l-0.3,0.8l-0.3,0.8l-0.3,0.8l-0.3,0.9l-0.2,0.9
		l-0.2,0.9l-0.2,0.9l-0.2,0.9l-0.2,0.9l-0.2,0.9l-0.2,0.9l-0.2,0.9l-0.2,0.9l-0.2,0.9l-0.1,0.9l-0.1,0.9l-0.1,1l-0.1,1l-0.1,1
		l-0.1,0.9l0,0.1l-0.1,1l-0.1,1l-0.1,1l0,1l0,1l0,1l0,1l0,1l0,1.1l0,1.1l0,1.1l0.1,1.1l0.1,1.1l0.2,2.5l0.2,2.5l0.2,2.5l0.2,2.5
		l0.2,2.5l0.2,2.5l0.2,2.6l0.2,2.6l0.2,2.6l0.2,2.6l0.3,2.6l0.3,2.6l0.3,2.6l0.3,2.6l0.3,2.6l0.3,2.6l0.3,2.6l0,0.4l0.3,2.2l0.3,2.6
		l0.3,2.6l0.3,2.6l0.3,2.6l0.3,2.6l0.4,2.6l0.4,2.6l0.4,2.6l0.4,2.6l0.4,2.6l0.4,2.6l0.4,2.6l0.4,2.6l0.4,2.6l0.4,2.6l0.4,2.6
		l0.4,2.6l0.4,2.6l0.5,2.6l0.5,2.6l0.5,2.6l0.5,2.6l0.5,2.6l0.5,2.6l0.2,1l0.3,1.5l0.5,2.5l0.5,2.5l0.5,2.5l0.5,2.5l0.5,2.5l0.5,2.5
		l0.5,2.5l0.5,2.5l0.5,2.5l0.5,2.4l0.5,2.4l0.5,2.4l0.6,2.4l0.6,2.4l0.6,2.4l0.6,2.4l0.6,2.3l0.6,2.3l0.6,2.3l0.6,2.3l0.6,2.2
		l0.1,0.3l0.1,0.3l0.1,0.3l0.1,0.3l0.1,0.3l0.1,0.3l0.1,0.3l0.1,0.3l0.1,0.3l0.1,0.3l0.1,0.3l0.1,0.3l0.1,0.3l0.2,0.3l0.2,0.3
		l0.2,0.3l0.2,0.3l0.2,0.3l0.2,0.3l0.2,0.3l0.2,0.3l0.2,0.3l0.2,0.3l0.2,0.3l0.2,0.3l0.2,0.3l0.2,0.3l0.2,0.3l0.2,0.3l0.2,0.3
		l0.2,0.3l0.2,0.3l0.3,0.3l0.3,0.3l0.3,0.3l0.3,0.3l0.3,0.3l0.3,0.3l0.3,0.3l0.3,0.3l0.6,0.6l0.6,0.6l0.7,0.6l0.7,0.5l0.7,0.5
		l0.7,0.5l0.8,0.5l0.8,0.5l0.8,0.5l0.8,0.5l0.8,0.5l0.9,0.5l0.9,0.5l0.9,0.5l0.9,0.5l1,0.5l1,0.5l1,0.4l1,0.4l1,0.4l1,0.4l1.1,0.4
		l1.1,0.4l1.1,0.4l1.1,0.4l1.1,0.4l1.2,0.3l1.2,0.3l1.2,0.3l1.2,0.3l1.2,0.3l1.2,0.3l1.2,0.3l1.3,0.3l1.3,0.3l1.3,0.2l1.3,0.2
		l1.3,0.2l1.3,0.2l1.3,0.2l1.4,0.2l1.3,0.2l1.4,0.1l1.4,0.1l1.4,0.1l1.4,0.1l1.4,0.1l1.4,0.1l1.4,0.1l1.4,0l1.4,0l1.4,0l1.4,0l1.4,0
		l1.4,0l1.5,0l1.5-0.1l1.5-0.1l1.5-0.1l1.5-0.1l1.5-0.1l1.5-0.1l1.5-0.2l1.5-0.2l1.5-0.2l1.5-0.2l1.5-0.2l1.5-0.2l1.5-0.2l1.5-0.3
		l1.5-0.3l1.5-0.3l1.5-0.3l1.5-0.3l1.5-0.3l1.5-0.4l1.5-0.4l0.9-0.2l0.6-0.2l1.5-0.4l1.5-0.4l1.4-0.4l1.4-0.5l1.4-0.5l1.4-0.5
		l1.4-0.5l1.4-0.5l1.4-0.5l1.4-0.5l1.4-0.6l1.4-0.6l1.4-0.6l1.4-0.6l1.4-0.6l1.3-0.6l1.3-0.7l1.3-0.7l1.3-0.7l1.3-0.7l1.3-0.7
		l1.3-0.8l1.3-0.8l1.3-0.8l1.2-0.8l1.2-0.8l1.2-0.8l1.2-0.9l0.2-0.2l1-0.7l1.3-0.9l0.1-0.1l9.3-2.3l8.3,4.9l0.1,0.1l2.3,9.3
		l-4.9,8.3l-0.1,0.1l-1.4,1l-1.2,0.9l-0.3,0.2L802,515l-1.5,1l-1.5,1l-1.5,1l-1.6,1l-1.6,0.9l-1.6,0.9l-1.6,0.9l-1.6,0.9l-1.6,0.9
		l-1.6,0.8l-1.6,0.8L783,526l-1.6,0.8l-1.6,0.7l-1.7,0.7l-1.7,0.7l-1.7,0.7l-1.7,0.7l-1.7,0.6l-1.7,0.6l-1.7,0.6l-1.7,0.6l-1.7,0.6
		l-1.7,0.5l-1.7,0.5l-1.7,0.5l-1.7,0.5l-0.7,0.2l-1,0.3l-1.7,0.4l-1.7,0.4l-1.7,0.4l-1.7,0.4l-1.7,0.4l-1.7,0.3l-1.7,0.3l-1.7,0.3
		l-1.7,0.3l-1.7,0.3l-1.7,0.2l-1.7,0.2l-1.7,0.2l-1.7,0.2l-1.7,0.2l-1.7,0.2l-1.7,0.1l-1.7,0.1l-1.7,0.1l-1.7,0.1l-1.7,0.1l-1.7,0.1
		l-1.7,0l-1.7,0l-1.7,0l-1.7,0l-1.7,0l-1.7-0.1l-1.7-0.1l-1.7-0.1l-1.7-0.1l-1.7-0.1l-1.6-0.1l-1.6-0.2l-1.6-0.2l-1.6-0.2l-1.6-0.2
		l-1.6-0.2l-1.6-0.3l-1.6-0.3l-1.6-0.3l-1.6-0.3l-1.6-0.3l-1.6-0.3l-1.5-0.3l-1.5-0.4l-1.5-0.4l-1.5-0.4l-1.5-0.4l-1.5-0.4l-1.5-0.4
		l-1.5-0.5l-1.4-0.5l-1.4-0.5l-1.4-0.5l-1.4-0.5l-1.4-0.6l-1.4-0.6l-1.4-0.6l-1.3-0.6l-1.3-0.6l-1.3-0.6l-1.3-0.7l-1.3-0.7l-1.3-0.7
		l-1.2-0.7l-1.2-0.7l-1.2-0.8l-1.2-0.8l-1.2-0.8L645,522l-1.1-0.8l-1.1-0.9l-1.1-0.9l-1.1-0.9l-1-0.9l-1-0.9l-0.5-0.5l-0.5-0.5
		l-0.5-0.5l-0.5-0.5l-0.5-0.5l-0.5-0.5l-0.5-0.5l-0.5-0.5l-0.5-0.5l-0.4-0.5l-0.4-0.5l-0.3-0.3l-0.2-0.2l-0.4-0.5l-0.4-0.6l-0.4-0.6
		l-0.4-0.6l-0.4-0.6l-0.4-0.6l-0.4-0.6l-0.4-0.6l-0.4-0.6l-0.4-0.6l-0.3-0.6l-0.3-0.6L628,503l-0.3-0.6l-0.3-0.6l-0.3-0.6l-0.3-0.6
		l-0.3-0.6l-0.3-0.6l-0.3-0.6l-0.3-0.6l-0.2-0.7l-0.2-0.7l-0.2-0.7l-0.2-0.7l-0.2-0.7l-0.2-0.7l-0.2-0.6l-0.6-2.4l-0.6-2.4l-0.6-2.4
		l-0.6-2.4l-0.6-2.4l-0.6-2.4l-0.6-2.5l-0.6-2.5l-0.6-2.5l-0.6-2.5l-0.5-2.5l-0.5-2.5l-0.5-2.5l-0.5-2.5l-0.5-2.6l-0.5-2.6l-0.5-2.6
		l-0.5-2.6l-0.5-2.6l-0.5-2.6l-0.5-2.6l-0.3-1.6l-0.2-1.1l-0.5-2.6l-0.5-2.6l-0.5-2.6l-0.4-2.7l-0.4-2.7l-0.4-2.7l-0.4-2.7l-0.4-2.7
		l-0.4-2.7l-0.4-2.7l-0.4-2.7l-0.4-2.7l-0.4-2.7l-0.4-2.7l-0.4-2.7l-0.4-2.7l-0.3-2.7l-0.3-2.7l-0.3-2.7l-0.3-2.7l-0.3-2.7l-0.3-2.7
		l-0.3-2.7l-0.3-2.7l-0.2-2.3l0-0.4l-0.3-2.7l-0.3-2.7l-0.3-2.7l-0.2-2.7l-0.2-2.7l-0.2-2.7l-0.2-2.7l-0.2-2.7l-0.2-2.6l-0.2-2.6
		l-0.2-2.6l-0.2-2.6l-0.2-2.6l-0.2-2.6l-0.2-2.6l-0.1-2.6l-0.1-2.6l-0.1-1.3l0-1.3l0-1.3l0-1.3v-1.3l0-1.3l0-1.3l0.1-1.3l0.1-1.3
		l0.1-1.3l0.1-1.3l0.1-1.3l0.1-1.3l0-0.1l0.1-1.2l0.2-1.2l0.2-1.2l0.2-1.2l0.2-1.2l0.2-1.2l0.2-1.2l0.2-1.2l0.3-1.2l0.3-1.2l0.3-1.2
		l0.3-1.2l0.3-1.2l0.3-1.2l0.3-1.1l0.4-1.1l0.4-1.1l0.4-1.1l0.4-1.1l0.4-1.1l0.4-1.1l0.4-1.1l0.4-1.1l0.5-1.1l0.5-1.1l0.5-1l0.5-1
		l0.5-1l0.5-1l0.5-1l0.6-1l0.6-1l0.6-1l0.6-1l0.6-1l0.6-0.9l0.6-0.9l0.6-0.9l0.6-0.9l0.7-0.9l0.7-0.9l0.7-0.9l0.7-0.9l0.7-0.9
		l0.7-0.9l0.2-0.3l0.5-0.6l0.7-0.8l0.8-0.8l0.8-0.8l0.8-0.8l0.8-0.8l0.8-0.8l0.8-0.8l0.8-0.8l0.8-0.7l0.8-0.7l0.8-0.7l0.9-0.7
		l0.9-0.7l0.9-0.7l0.9-0.7l0.9-0.7l0.9-0.7l0.9-0.6l0.9-0.6l0.9-0.6l0.9-0.6l0.9-0.6l0.9-0.6l0.9-0.6l1-0.6l1-0.6l1-0.5l1-0.5l1-0.5
		l1-0.5l1-0.5l1-0.5l1-0.5l1-0.5l0.7-0.3l0.3-0.1l1-0.4l1-0.4l1-0.4l1.1-0.4l1.1-0.4l1.1-0.4l1.1-0.4l1.1-0.3l1.1-0.3l1.1-0.3
		l1.1-0.3l1.1-0.3l1.1-0.3l1.1-0.3l1.1-0.3l1.1-0.3l1.1-0.2l1.1-0.2l1.1-0.2l1.1-0.2l1.1-0.2l1.1-0.2l1.1-0.2l1.2-0.2l1.2-0.1
		l1.2-0.1l1.2-0.1l1.2-0.1l1.2-0.1l1.2-0.1l1.2-0.1h0l1.2-0.1l1.2,0l1.2,0l5.9-0.1l5.8-0.1l5.8-0.1l5.7,0l3.8,0L718.4,229.3z"/>
	<path class="st1" d="M60.6,507.2l-1.6-0.7l-1.7-0.7l-1.7-0.8l-1.7-0.8l-1.7-0.8l-1.7-0.8l-1.7-0.9l-1.7-0.9l-1.7-0.9l-1.7-0.9
		l-0.8-0.5l-0.8-0.5l-0.8-0.5l-0.8-0.5l-0.8-0.5l-0.8-0.5l-0.8-0.5l-0.8-0.5l-0.8-0.5l-0.8-0.5l-0.8-0.5l-0.8-0.5l-0.8-0.5l-0.8-0.6
		l-0.8-0.6l-0.8-0.6l-0.8-0.6l-0.7-0.6l-0.7-0.6l-0.7-0.6l-0.7-0.6l-0.7-0.6l-0.7-0.6l-0.7-0.6l-0.7-0.6l-0.6-0.6l-0.6-0.6l-0.6-0.6
		l-0.6-0.6l-0.6-0.6l-0.6-0.6l-0.6-0.7l-0.6-0.7l-0.5-0.7l-0.5-0.7l-0.5-0.7l-0.5-0.7l-0.5-0.7l-0.5-0.7l-0.4-0.7l-0.4-0.7l-0.4-0.7
		l-0.4-0.7l-0.4-0.7l-0.3-0.7l-0.3-0.7l-0.3-0.7l-0.3-0.8l-0.3-0.8l-0.2-0.8l-0.2-0.8l-0.2-0.8l-0.2-0.8l-0.2-0.8l-0.1-0.8l-0.1-0.8
		l-0.2-1.5l-0.1-1.4l-0.1-1.4l-0.1-1.4l-0.1-1.4l-0.1-1.4l0-1.3v-0.1l0-1.2v-1.3l0-1.3l0-1.3l0.1-1.3l0.1-1.2l0.1-1.2l0.1-1.2
		l0.1-1.2l0.2-1.2l0.2-1.2l0.2-1.2l0.2-1.1l0.2-1.1l0.2-1.1l0.3-1.1l0.3-1.1l0.3-1.1l0.3-1.1l0.3-1l0.3-1l0.4-1l0.4-1l0.4-1l0.4-1
		l0.4-1L17,423l0.5-0.9l0.5-0.9l0.5-0.9l0.5-0.9l0.5-0.9l0.5-0.9l0.5-0.8L21,416l0.6-0.8l0.6-0.8l0.6-0.8l0.6-0.8L24,412l0.6-0.8
		l0.6-0.7l0.7-0.7l0.7-0.7l0.7-0.7l0.7-0.7l0.7-0.7l0.7-0.7l0.7-0.6l0.7-0.6l0.7-0.6l0.8-0.6l0.8-0.6l0.8-0.6l0.8-0.6l0.8-0.6
		l0.8-0.5l0.8-0.5l0.8-0.5l0.8-0.5l0.8-0.5l0.8-0.5l0.9-0.5l0.9-0.5l0.9-0.5l0.9-0.5l0.9-0.4l0.9-0.4l0.9-0.4l0.9-0.4l0.9-0.4
		l0.9-0.4l0.9-0.4l0.9-0.4L52,393l0.9-0.3l0.9-0.3l0.9-0.3l1-0.3l1-0.3l1-0.3l1-0.3l1-0.3l1-0.3l1-0.3l1-0.3l1-0.3l1-0.2l1-0.2
		l1-0.2l0.7-0.2l0.3-0.1l1-0.2l1-0.2l1-0.2l1-0.2l1-0.2l1-0.2l1-0.2l1-0.2l1-0.1l1-0.1l1-0.1l1-0.1l1-0.1l1-0.1l1-0.1l1-0.1l2-0.2
		l2-0.2l2-0.1l2-0.1l2-0.1l2-0.1l2,0l1.2,0l1.2,0h1.2h1.2l1.2,0l1.1,0l1.2,0l1.2,0l1.1,0l1.2,0.1l2.3,0.1l2.3,0.1l2.3,0.2l2.3,0.2
		l2.3,0.2l2.3,0.2l2.3,0.3l2.3,0.3l2.3,0.3l2.3,0.3l2.3,0.3l2.3,0.4l2.3,0.4l2.3,0.4l2.2,0.4l2.2,0.4l2.2,0.5l2.2,0.5l2.2,0.5
		l2.2,0.5l2.2,0.5l2.2,0.5l2.2,0.6l2.2,0.6l2.2,0.6l2.2,0.6l2.2,0.6l2.2,0.6l2.2,0.6l2.2,0.7l2.2,0.7l2.2,0.7l2.2,0.7l2.2,0.7
		l2.1,0.7l2.1,0.7l2.1,0.7l2.1,0.7l2.1,0.8l2.1,0.8l2.1,0.8l2.1,0.8l2.1,0.8l2.1,0.8l2.1,0.8l2.1,0.8l2.1,0.8l2,0.8l2,0.8l2,0.8
		l2,0.8l4,1.7l4,1.7l3.9,1.7l3.9,1.7l3.9,1.7l3.8,1.7l3.8,1.7l3.8,1.7l6.5,2.9l0.9,0.4l3.7,1.6l3.6,1.6l3.6,1.5l3.5,1.5l3.5,1.5
		l3.4,1.4l3.4,1.4l1.7,0.7l1.7,0.7l1.6,0.7l1.6,0.6l1.6,0.6l1.6,0.6l1.6,0.6l1.6,0.6l1.6,0.6l1.6,0.6l1.5,0.5l1.5,0.5l1.5,0.5
		l1.5,0.5l1.5,0.5l1.5,0.5l1.5,0.4l1.4,0.4l1.4,0.4l1.4,0.4l1.4,0.4l1.4,0.3l1.4,0.3l1.3,0.3l1.3,0.3l1.3,0.3l1.3,0.2l1.3,0.2
		l1.2,0.2l1.2,0.2l1.2,0.2l1.2,0.1l1.2,0.1l1.1,0.1l1.1,0.1l0.5,0l0.6,0l0.5,0h0.5h0.5l0.5,0l1.1,0l1.2,0l1.2,0l1.2-0.1l1.2-0.1
		l1.2-0.1l1.2-0.1l1.2-0.1l1.2-0.1l1.2-0.1l1.2-0.1l1.2-0.1l1.2-0.1l1.2-0.2l1.2-0.2l1.2-0.2l1.2-0.2l1.2-0.2l1.2-0.2l1.2-0.2
		l1.2-0.2l1.2-0.2l1.2-0.3l1.2-0.3l1.2-0.3l1.2-0.3l1.2-0.3l1.2-0.3l1.2-0.3l1.2-0.3l1.2-0.3l1.2-0.4l1.2-0.4l1.2-0.4l1.2-0.4
		l1.2-0.4l1.1-0.4l1.1-0.4l1.1-0.4l1.1-0.5l1.1-0.5l1.1-0.5l1.1-0.5l1.1-0.5l1.1-0.5l1.1-0.5l1-0.5l1-0.6l1-0.6l1-0.6l1-0.6l1-0.6
		l1-0.6l1-0.6l0.9-0.7l0.9-0.7l0.9-0.7l0.9-0.7l0.9-0.7l0.9-0.7l0.8-0.7l0.8-0.7l0.8-0.8l0.8-0.8l0.8-0.8l0.4-0.4l0.4-0.4l0.4-0.4
		l0.4-0.4l0.4-0.4l0.4-0.4l0.3-0.4l0.3-0.4l0.3-0.4l0.3-0.4l0.3-0.4l0.3-0.4l0.3-0.4l0.3-0.4l0.3-0.4l0.3-0.4l0.3-0.4l0.3-0.5
		l0.3-0.5l0.3-0.5l0.3-0.5l0.3-0.5l0.3-0.5l0.3-0.5l0.3-0.5l0.3-0.5l0.2-0.5l0.3-0.5l0.2-0.5l0.2-0.5l0.2-0.5l0.2-0.5l0.2-0.5
		l0.2-0.5l0.2-0.5l0.2-0.5l0.2-0.5l0.2-0.5l0.2-0.5l0.2-0.5l0.2-0.5l0.2-0.6l0.2-0.5l0.2-0.6l0.2-0.6l0.2-0.6l0.1-0.6l0.1-0.6
		l0.1-0.6l0.1-0.6l0.1-0.6l0.1-0.6l0.1-0.6l0.1-0.6l0.1-0.6l0.1-0.6l0.1-0.6l0.1-0.6l0.1-0.6l0.1-0.6l0.1-0.6l0.1-0.6l0-0.7l0-0.7
		l0-0.7l0-0.7l0-0.7l0-0.7v-0.7l0-0.7l0-0.7l0-0.7l0-0.7l0-0.7l0-0.7l-0.1-0.7l-0.1-0.7l-0.1-0.8l-0.1-0.8l-0.1-0.8l-0.1-0.8
		l-0.1-0.8l-0.1-0.8l-0.1-0.8l-0.1-0.8l-0.1-0.8l-0.1-0.8l-0.1-0.8l-0.2-0.8l-0.2-0.8l-0.2-0.8l-0.2-0.8l-0.2-0.8l-0.2-0.8l-0.2-0.9
		l-0.2-0.9l-0.2-0.9l-0.2-0.9l-0.2-0.9l-0.3-0.9l-0.3-0.9l-0.3-0.9l-0.3-0.9l-0.3-0.9l-0.3-0.9l-0.3-0.9l-0.3-0.9l-0.3-0.9l-0.3-0.9
		l-0.3-1l-0.4-1l-0.4-1l-0.4-1l-0.4-1l-0.4-1l-0.4-1l-0.4-1l-0.4-1l-0.4-1l-0.4-1l-0.5-1l-0.2-0.4l-0.2-0.1l-1.2-0.8l-1.2-0.8
		l-1.2-0.8l-1.2-0.8l-1.2-0.9l-1.1-0.9l-1.1-0.9l-1.1-0.9l-1.1-0.9l-1.1-1l-1.1-1l-1.1-1l-1-1l-1-1l-1-1.1l-1-1.1l-1-1.1l-1-1.1
		l-1-1.1l-0.9-1.2l-0.9-1.2l-0.9-1.2l-0.9-1.2l-0.9-1.2l-0.8-1.3l-0.8-1.3l-0.8-1.3l-0.4-0.7l-0.4-0.7l-0.4-0.7l-0.4-0.7l-0.4-0.7
		l-0.4-0.7l-0.4-0.7l-0.4-0.7l-0.3-0.7L379,314l-0.3-0.7l-0.3-0.7l-0.3-0.7l-0.3-0.7l-0.3-0.7l-0.3-0.7l-0.3-0.7l-0.3-0.7l-0.3-0.7
		l-0.3-0.8l-0.3-0.8l-0.3-0.8l-0.3-0.8l-0.2-0.8l-0.2-0.8l-0.2-0.8l-0.2-0.8l-0.2-0.8l-0.2-0.8l-0.2-0.8l-0.2-0.8l-0.2-0.8l-0.2-0.8
		l-0.2-0.8l-0.2-0.8l-0.2-0.8l-0.2-0.8l-0.2-0.8l-0.1-0.8l-0.1-0.8l-0.1-0.8l-0.1-0.9l-0.1-0.9l-0.1-0.9l-0.1-0.9l-0.1-0.9l-0.1-0.9
		l-0.1-0.9l-0.1-0.9L371,282l-0.1-0.9l0-0.9l0-0.9l0-0.9l0-0.9l0-0.9l0-0.9l0-0.9l0-0.9l0-0.9l0-0.9l0-0.9l0.1-0.9l0.1-0.9l0.1-0.9
		l0.1-1l0.1-1l0.1-1l0.1-1l0.1-1l0.1-1l0.1-1l0.8-6.7l0.8-6.5l0.8-6.3l0.8-6.2l0.8-6l0.8-5.9l0.8-5.8l0.8-5.7l0.8-5.6l0.9-5.5l0.3-2
		l0.5-3.4l0.9-5.4l0.9-5.4l0.9-5.3l0.9-5.3l1-5.3l1-5.3l1-5.4l1-5.4l1.1-5.5l1.1-5.5l1.2-5.6l1.2-5.7l1.2-5.8l1.3-6l1.3-6.1l1.4-6.3
		l1.4-6.4l1.5-6.6l1.5-6.8l1.6-7l1.7-7.2l0.2-1l0.3-1l0.3-1l0.3-1l0.3-1l0.3-1l0.3-1l0.4-1l0.4-1l0.4-1l0.4-1l0.4-1l0.5-1l0.5-1
		l0.5-1l0.5-1l0.5-1l0.5-1l0.6-1l0.6-1l0.6-1l0.6-1l0.6-1l0.6-1l0.7-1l0.7-1l0.7-1l0.7-1l0.7-1l0.8-1l0.8-1l0.8-1l0.8-1l0.8-1l0.8-1
		l0.8-1l0.9-1l0.9-1l0.9-1l0.9-1l0.9-1l1-1l1-1l1-0.9l0.2-0.2l0.8-0.7l1-0.9l1-0.9l1-0.9l1-0.9l1.1-0.9l1.1-0.9l1.1-0.9l1.1-0.8
		l1.1-0.8l1.1-0.8l1.2-0.8l1.2-0.8l1.2-0.8l1.2-0.8L451,14l1.2-0.7l1.2-0.7l1.3-0.7l1.3-0.7l1.3-0.7l1.3-0.7l1.3-0.6l1.3-0.6
		l1.4-0.6l1.4-0.6l1.4-0.6l1.4-0.5l1.4-0.5l1.4-0.5l1.4-0.5l1.5-0.5l1.5-0.4l1.5-0.4l1.5-0.4l1.5-0.4l1.5-0.4l1.5-0.3l1.5-0.3
		l1.5-0.3l1.6-0.3l0.8-0.1l0.8-0.1l0.8-0.1l0.8-0.1l0.8-0.1l0.8-0.1l0.8-0.1l0.8-0.1l0.8-0.1l0.8-0.1l0.8-0.1l0.8-0.1l0.8,0l0.8,0
		l0.8,0l0.8,0l0.8,0l0.8,0h0.8l0.8,0l0.8,0l0.8,0l0.8,0l0.9,0l0.9,0.1l0.9,0.1l0.9,0.1l0.9,0.1l0.9,0.1l0.9,0.1l0.9,0.1l0.9,0.1
		l0.9,0.1l0.9,0.1l0.9,0.1l0.9,0.1l0.9,0.1l0.9,0.1l0.9,0.2l0.9,0.2l0.9,0.2l0.9,0.2l0.9,0.2l0.9,0.2l0.9,0.2l0.9,0.2l0.9,0.2
		l0.9,0.2l0.9,0.2l0.9,0.2l0.9,0.3l0.9,0.3l0.9,0.3l0.9,0.3l0.9,0.3l0.9,0.3l0.9,0.3l0.9,0.3l0.9,0.3l0.9,0.3l0.9,0.3l0.9,0.4
		l0.9,0.4l0.9,0.4l1,0.4l0.9,0.4l0.9,0.4l1,0.4l1,0.4l1,0.4l1,0.4l1,0.4l1,0.5l1,0.5l1,0.5l1,0.5l1,0.5l1,0.5l1,0.5l1,0.5l0.1,0.1
		l0.9,0.5l1,0.5l1,0.5l1,0.6l1,0.6l1,0.6l6.5,3.7L576,26l6.6,3.8l6.6,3.8l6.7,3.8l6.7,3.8l13.5,7.7l13.7,7.8l6.9,3.9l6.9,3.9
		l6.9,3.9l6.9,4l0.9,0.5l6,3.5l6.9,4l6.9,4l6.9,4l6.9,4l6.9,4.1l3.4,2l3.4,2.1l3.4,2.1l3.4,2.1l3.4,2.1l3.4,2.1l3.4,2.1l3.4,2.1
		l3.4,2.1l3.4,2.1l3.4,2.1l3.4,2.1l3.4,2.1l3.3,2.1l3.3,2.1l3.3,2.1l3.3,2.1l3.3,2.1l3.3,2.1l3.3,2.1l3.3,2.1l3.2,2.1l3.2,2.1
		l3.2,2.2l3.2,2.2l3.2,2.2l3.2,2.2l3.1,2.2l3.1,2.2l3.1,2.2l3.1,2.2l3.1,2.2l3,2.2l3,2.2l0.7,0.5l2.3,1.7l3,2.2l3,2.2l2.9,2.2
		l2.9,2.2l2.9,2.2l2.9,2.2l2.8,2.2l2.8,2.3l2.8,2.3l2.8,2.3l2.7,2.3l2.7,2.3l2.7,2.3l2.7,2.3l2.6,2.3l2.6,2.3l2.6,2.3l2.5,2.3
		l2.5,2.3l1.2,1.2l1.2,1.2l1.2,1.2l1.2,1.2l1.2,1.2l1.2,1.2l1.2,1.2l1.2,1.2l1.2,1.2l1.2,1.2l1.2,1.2l1.2,1.2l1.1,1.2l1.1,1.2
		l1.1,1.2l1.1,1.2l1.1,1.2l1.1,1.2l1.1,1.2l1.1,1.2l1.1,1.2l1.1,1.2l1.1,1.2l1.1,1.2l1,1.2l1,1.2l1,1.2l1,1.2l1,1.2l1,1.2l1,1.2
		l1,1.2l1,1.2l1,1.2l0.9,1.2l0.9,1.2l0.9,1.2l0.9,1.2l0.9,1.2l0.9,1.2l0.9,1.2l0.9,1.2l0.9,1.2l0.9,1.2l0.8,1.2l0.8,1.2l0.8,1.2
		l0.8,1.2l0.8,1.2l0.8,1.2l0.8,1.2l0.8,1.2l0.8,1.2l0.7,1.2l0.7,1.2l0.7,1.2l0.7,1.2l0.7,1.2l0.7,1.2l0.7,1.2l0.7,1.2l0.6,1.2
		l0.6,1.2l0.6,1.3l0.6,1.2l0.6,1.3l0.6,1.3l0.6,1.2l1.2,2.6l1.1,2.6l1.1,2.6l1.1,2.6l1.1,2.6l1.1,2.6l1.1,2.6l1.1,2.7l1,2.7l0.9,2.3
		l0.2,0.4l1,2.7l1,2.7l1,2.7l1,2.7l1,2.8l0.9,2.8l0.9,2.8l0.9,2.8l0.9,2.8l0.9,2.8l0.9,2.8l0.8,2.8l0.8,2.8l0.8,2.9l0.8,2.9l0.8,2.9
		l0.8,2.9l0.8,2.9l0.7,2.9l0.7,2.9l0.7,2.9l0.7,2.9l0.7,2.9l0.6,2.9l0.6,2.9l0.6,3l0.6,3l0.6,3l0.6,3l0.5,3l0.5,3l0.5,3l0.5,3l0.5,3
		l0.5,3l0.4,3l0.4,3l0.4,3l0.4,3l0.4,3l0.4,3l0.3,3l0.3,3l0.3,3l0.3,3l0.3,3l0.2,3l0.2,3l0.2,3.1l0.2,3l0.2,3.1l0.2,3.1l0.1,3
		l0.1,3.1l0.1,3.1l0.1,3l0.1,3.1l0,3l0,3v3l0,1.9v-1.9l0-3l0-3l-0.1-3l-0.1-3.1l-0.1-3l-0.1-3l-0.1-3.1l-0.2-3l-0.2-3.1l-0.2-3
		l-0.2-3l-0.2-3l-0.3-3l-0.3-3l-0.3-3l-0.3-3l-0.3-3l-0.3-3l-0.4-3l-0.4-3l-0.4-3l-0.4-3l-0.4-3l-0.4-3l-0.5-3l-0.5-3l-0.5-3l-0.5-3
		l-0.5-3l-0.5-3l-0.6-3l-0.6-3l-0.6-3l-0.6-3l-0.6-2.9l-0.6-2.9l-0.7-2.9l-0.7-2.9l-0.7-2.9l-0.7-2.9l-0.7-2.9l-0.8-2.9l-0.8-2.9
		l-0.8-2.9l-0.8-2.9l-0.8-2.9l-0.8-2.8l-0.8-2.8l-0.9-2.8l-0.9-2.8l-0.9-2.8l-0.9-2.8l-0.9-2.8l-0.9-2.8l-1-2.8l-1-2.7l-1-2.7
		l-1-2.7l-1-2.7l-1-2.7l-0.2-0.4l-0.9-2.3l-1.1-2.7l-1.1-2.6l-1.1-2.6l-1.1-2.6l-1.1-2.6l-1.1-2.6l-1.1-2.6l-1.2-2.5l-1.2-2.5
		l-0.6-1.2l-0.6-1.2l-0.6-1.2l-0.6-1.2l-0.6-1.2l-0.6-1.2l-0.7-1.2l-0.7-1.2l-0.7-1.2l-0.7-1.2l-0.7-1.2l-0.7-1.2l-0.7-1.2l-0.7-1.2
		l-0.8-1.2L917,277l-0.8-1.2l-0.8-1.2l-0.8-1.2l-0.8-1.2l-0.8-1.2l-0.8-1.2l-0.8-1.2l-0.8-1.2l-0.9-1.2l-0.9-1.2l-0.9-1.2l-0.9-1.2
		l-0.9-1.2l-0.9-1.2l-0.9-1.2l-0.9-1.2l-0.9-1.2l-0.9-1.2l-1-1.2l-1-1.2l-1-1.2l-1-1.2l-1-1.2l-1-1.2l-1-1.2l-1-1.2l-1-1.2l-1-1.2
		l-1.1-1.2l-1.1-1.2l-1.1-1.2l-1.1-1.2l-1.1-1.2l-1.1-1.2l-1.1-1.2l-1.1-1.2l-1.1-1.2l-1.1-1.2l-1.1-1.2l-1.1-1.2l-1.2-1.2l-1.2-1.2
		l-1.2-1.1l-1.2-1.1l-1.2-1.1l-1.2-1.1l-1.2-1.1l-1.2-1.1l-1.2-1.1l-1.2-1.1L865,217l-1.2-1.1l-2.5-2.3l-2.5-2.3l-2.6-2.3l-2.6-2.3
		l-2.6-2.2l-2.7-2.2l-2.7-2.2l-2.7-2.2l-2.8-2.2l-2.8-2.2l-2.8-2.2l-2.8-2.2l-2.9-2.2l-2.9-2.2l-2.9-2.2l-2.9-2.2l-2.9-2.2l-3-2.2
		l-3-2.2l-2.3-1.7l-0.7-0.5l-3-2.2l-3.1-2.2l-3.1-2.1l-3.1-2.1l-3.1-2.1l-3.1-2.1l-3.2-2.1l-3.2-2.1l-3.2-2.1l-3.2-2.1l-3.2-2.1
		l-3.2-2.1l-3.3-2.1l-3.3-2.1l-3.3-2.1l-3.3-2.1l-3.3-2.1l-3.3-2.1l-3.3-2.1l-3.3-2.1l-3.4-2.1l-3.4-2.1l-3.4-2l-3.4-2l-3.4-2
		l-3.4-2l-3.4-2l-3.4-2l-3.4-2l-3.4-2l-3.5-2l-3.5-2l-3.5-2l-3.5-2l-6.9-4l-6.9-3.9l-7-3.9l-7-3.9l-7-3.9l-6.1-3.4l-0.9-0.5l-7-3.8
		l-7-3.8l-6.9-3.8l-6.9-3.8l-13.8-7.5l-13.7-7.5l-6.8-3.7l-6.7-3.7l-6.7-3.7l-6.6-3.7l-6.6-3.6l-6.5-3.6l-1-0.5l-1-0.5l-1-0.5
		l-0.9-0.5l-0.9-0.5l-0.8-0.4l-0.1-0.1l-0.9-0.5l-0.9-0.5l-0.9-0.4l-0.9-0.4l-0.9-0.4l-0.9-0.4l-0.9-0.4l-0.9-0.4l-0.9-0.4l-0.9-0.4
		l-0.9-0.4l-0.9-0.4l-0.9-0.4l-0.9-0.3l-0.9-0.3l-0.9-0.3l-0.9-0.3l-0.9-0.3l-0.9-0.3l-0.9-0.3l-0.9-0.3l-0.9-0.3l-0.9-0.3l-0.9-0.3
		l-0.9-0.3L530,13l-0.9-0.2l-0.9-0.2l-0.9-0.2l-0.9-0.2l-0.9-0.2l-0.9-0.2l-0.8-0.2l-0.8-0.2l-0.8-0.2l-0.8-0.2l-0.8-0.2l-0.8-0.1
		l-0.8-0.1l-0.8-0.1l-0.8-0.1l-0.8-0.1l-0.8-0.1l-0.8-0.1l-0.8-0.1l-0.8-0.1l-0.8-0.1l-0.8-0.1l-0.8-0.1l-0.8-0.1l-0.8-0.1l-0.8,0
		l-0.8,0l-0.8,0l-0.8,0l-0.8,0l-0.8,0h-0.8h-0.8l-0.8,0l-0.8,0l-0.8,0l-0.8,0l-0.7,0l-0.8,0l-0.7,0.1l-0.7,0.1l-0.7,0.1l-0.7,0.1
		l-0.7,0.1l-0.7,0.1l-0.7,0.1l-0.7,0.1l-0.7,0.1l-0.7,0.1l-0.7,0.1l-0.7,0.1l-0.7,0.1l-0.7,0.1l-0.7,0.1l-1.4,0.3l-1.4,0.3l-1.4,0.3
		l-1.4,0.3l-1.3,0.4l-1.3,0.4l-1.3,0.4l-1.3,0.4l-1.3,0.4l-1.3,0.5l-1.3,0.5l-1.2,0.5l-1.2,0.5l-1.2,0.5l-1.2,0.5l-1.2,0.6l-1.2,0.6
		l-1.2,0.6l-1.2,0.6l-1.1,0.6l-1.1,0.6l-1.1,0.6l-1.1,0.7l-1.1,0.7l-1.1,0.7l-1.1,0.7l-1.1,0.7l-1,0.7l-1,0.7l-1,0.8l-1,0.8l-1,0.8
		l-1,0.8l-1,0.8l-1,0.8l-0.9,0.8l-0.9,0.8l-0.9,0.8l-0.9,0.8l-0.9,0.8l-0.7,0.7l-0.2,0.2l-0.8,0.9l-0.8,0.9l-0.8,0.9l-0.8,0.9
		l-0.8,0.9l-0.8,0.9l-0.8,0.9l-0.7,0.9l-0.7,0.9l-0.7,0.9l-0.7,0.9l-0.7,0.9l-0.7,0.9l-0.6,0.9l-0.6,0.9l-0.6,0.9l-0.6,0.9l-0.6,0.9
		l-0.6,0.9l-0.6,0.9l-0.5,0.9l-0.5,0.9l-0.5,0.9l-0.5,0.9l-0.5,0.9l-0.5,0.9l-0.4,0.9l-0.4,0.9l-0.4,0.9l-0.4,0.9l-0.4,0.9l-0.4,0.9
		l-0.3,0.9l-0.3,0.9l-0.3,0.9l-0.3,0.9l-0.3,0.9l-0.3,0.8l-0.2,0.8l-0.2,0.8l-0.2,0.8l-0.2,0.8l-0.2,0.8l-0.2,0.8l-1.4,7.2l-1.4,7
		l-1.3,6.8l-1.3,6.6l-1.2,6.4l-1.2,6.3l-1.1,6.1l-1.1,6l-1,5.8l-1,5.7l-1,5.6l-0.9,5.5l-0.9,5.5l-0.9,5.4l-0.8,5.3l-0.8,5.3
		l-0.8,5.3l-0.8,5.3l-0.7,5.3l-0.7,5.3l-0.7,5.3l-0.4,3.4l-0.2,2l-0.6,5.5l-0.6,5.5l-0.6,5.6l-0.6,5.8l-0.6,5.9l-0.6,6l-0.6,6.2
		l-0.6,6.3l-0.6,6.5l-0.6,6.7l-0.1,0.8l-0.1,0.8l-0.1,0.8l-0.1,0.8l0,0.8l0,0.8l0,0.8l0,0.8l0,0.8l0,0.8v0.8v0.8l0,0.8l0,0.8l0,0.8
		l0,0.7l0,0.7l0,0.7l0,0.7l0.1,0.7l0.1,0.7l0.1,0.7l0.1,0.7l0.1,0.7l0.1,0.7l0.1,0.7l0.1,0.7l0.1,0.7l0.1,0.7l0.1,0.7l0.1,0.7
		l0.1,0.7l0.1,0.6l0.1,0.6l0.1,0.6l0.1,0.6l0.1,0.6l0.2,0.6l0.2,0.6l0.2,0.6l0.2,0.6l0.2,0.6l0.2,0.6l0.2,0.6l0.2,0.6l0.2,0.6
		l0.2,0.6l0.2,0.6l0.2,0.6l0.2,0.6l0.2,0.6l0.2,0.6l0.2,0.6l0.2,0.5l0.2,0.5l0.2,0.5l0.2,0.5l0.2,0.5l0.3,0.5l0.3,0.5l0.3,0.5
		l0.3,0.5l0.3,0.5l0.3,0.5l0.3,0.5l0.3,0.5l0.3,0.5l0.3,0.5l0.3,0.5l0.3,0.5l0.3,0.5l0.3,0.4l0.6,1l0.6,0.9l0.6,0.9l0.7,0.9l0.7,0.9
		l0.7,0.9l0.7,0.8l0.7,0.8l0.7,0.8l0.7,0.8l0.8,0.8l0.8,0.8l0.8,0.8l0.8,0.7l0.8,0.7l0.8,0.7l0.8,0.7l0.8,0.7l0.9,0.7l0.9,0.6
		l0.9,0.6l0.9,0.6l0.9,0.6l0.9,0.6l0.9,0.6l0.9,0.6l0.9,0.5l0.9,0.5l0.9,0.5l1,0.5l1,0.5l1,0.5l1,0.5l1,0.4l1,0.4l1,0.4l1,0.4l1,0.4
		l1,0.4l1,0.4l1,0.3l1,0.3l1,0.3l1,0.3l1,0.3l1,0.3l1,0.3l1,0.2l1,0.2l1,0.2l1,0.2l1,0.2l1,0.2l1,0.2l1,0.1l1,0.1l1,0.1l1,0.1l1,0.1
		l1,0.1l1,0.1l1,0.1l1,0l1,0l1,0l1,0l1,0l1,0l1,0l1-0.1l1-0.1l1-0.1l1-0.1l0.9-0.1l0.9-0.1l0.9-0.1l0.9-0.1l0.9-0.2l0.9-0.2l0.9-0.2
		l0.9-0.2l0.9-0.2l0.9-0.2l0.8-0.2l0.8-0.2l0.8-0.3l0.8-0.3l0.8-0.3l0.5-0.2l0.3-0.1l0.8-0.3l0.7-0.3l0.8-0.4l0.1,0l9.6,0.1l6.8,6.8
		l0.1,0.2l-0.1,9.6l-6.8,6.8l-0.1,0l-1.1,0.4l-1.2,0.4l-1.2,0.4L490,360l-0.8,0.2l-1.2,0.4l-1.2,0.4l-1.2,0.3l-1.2,0.3l-1.2,0.3
		l-1.2,0.3l-1.2,0.3l-1.2,0.2l-1.3,0.2l-1.3,0.2l-1.3,0.2l-1.3,0.2l-1.3,0.1l-1.3,0.1l-1.3,0.1l-1.3,0.1l-1.3,0.1l-1.3,0.1l-1.3,0
		l-1.3,0h-1.3l-1.3,0l-1.3,0l-1.3-0.1l-1.3-0.1l-1.3-0.1l-1.3-0.1l-1.3-0.1l-1.3-0.2l-1.3-0.2l-1.3-0.2l-1.3-0.2l-1.3-0.2l-1.3-0.2
		l-1.3-0.3l-1.3-0.3l-1.3-0.3l-1.3-0.3l-1.3-0.3l-1.3-0.3l-1.3-0.4l-0.4-0.1l0.1,0.4l0.3,1.1l0.3,1.1l0.3,1.1l0.3,1l0.3,1l0.2,1
		l0.2,1l0.2,1l0.2,1l0.2,1l0.2,1l0.2,1l0.2,1l0.2,1l0.2,1l0.2,1l0.1,1l0.1,1l0.1,1l0.1,1l0.1,1l0.1,1l0.1,0.9l0.1,0.9l0.1,0.9
		l0.1,0.9l0,0.9l0,0.9l0,0.9l0,0.9l0,0.9v0.9l0,0.9l0,0.9l0,0.9l0,0.9l-0.1,0.9l-0.1,0.9l-0.1,0.9l-0.1,0.9l-0.1,0.9l-0.1,0.8
		l-0.1,0.8l-0.1,0.8l-0.1,0.8l-0.1,0.8l-0.1,0.8l-0.1,0.8l-0.1,0.8l-0.2,0.8l-0.2,0.8l-0.2,0.8l-0.2,0.8l-0.2,0.8l-0.2,0.8l-0.2,0.8
		l-0.2,0.8l-0.2,0.8l-0.2,0.8l-0.2,0.8l-0.2,0.7l-0.3,0.7l-0.3,0.7l-0.3,0.7l-0.3,0.7l-0.3,0.7l-0.3,0.7l-0.3,0.7l-0.3,0.7l-0.3,0.7
		l-0.3,0.7l-0.3,0.7l-0.3,0.7l-0.3,0.7l-0.3,0.7l-0.4,0.7l-0.4,0.7l-0.4,0.6l-0.4,0.6l-0.4,0.6l-0.4,0.6l-0.4,0.6l-0.4,0.6l-0.4,0.6
		l-0.4,0.6l-0.4,0.6l-0.4,0.6l-0.4,0.6l-0.4,0.6l-0.4,0.6l-0.4,0.6l-0.4,0.6l-0.5,0.6l-0.5,0.6l-0.5,0.5l-0.5,0.5l-0.5,0.5l-0.5,0.5
		l-0.5,0.5l-0.5,0.5l-0.5,0.5l-0.5,0.5l-0.5,0.5l-0.5,0.5l-1,1l-1,0.9l-1.1,0.9l-1.1,0.9l-1.1,0.9l-1.1,0.9l-1.1,0.8l-1.1,0.8
		l-1.2,0.8l-1.2,0.8l-1.2,0.8l-1.2,0.7l-1.2,0.7l-1.2,0.7l-1.2,0.7l-1.2,0.7l-1.2,0.6l-1.2,0.6l-1.3,0.6l-1.3,0.6l-1.3,0.6l-1.3,0.5
		l-1.3,0.5l-1.3,0.5l-1.3,0.5l-1.3,0.5l-1.3,0.5l-1.3,0.4l-1.3,0.4l-1.3,0.4l-1.3,0.4l-1.3,0.4l-1.3,0.4l-1.3,0.4l-1.4,0.3l-1.3,0.3
		l-1.4,0.3l-1.4,0.3l-1.4,0.3l-1.4,0.3l-1.4,0.3l-1.4,0.2l-1.4,0.2l-1.4,0.2l-1.4,0.2l-1.3,0.2l-1.4,0.2l-1.3,0.2l-1.3,0.2l-1.3,0.1
		l-1.3,0.1l-1.3,0.1l-1.3,0.1l-1.3,0.1l-1.3,0.1l-1.3,0.1l-1.3,0.1l-1.3,0.1l-1.3,0l-1.3,0l-1.3,0l-1.3,0h-1.3l-1.3,0l-1.3,0l-0.7,0
		l-0.7,0l-0.7,0l-0.7,0l-0.7-0.1l-0.7-0.1l-1.4-0.1l-1.4-0.2l-1.4-0.2l-1.4-0.2l-1.4-0.2l-1.4-0.3l-1.4-0.3l-1.4-0.3l-1.4-0.3
		l-1.5-0.4l-1.5-0.4l-1.5-0.4l-1.5-0.4l-1.5-0.4L311,464l-1.5-0.5l-1.5-0.5l-1.5-0.5l-1.5-0.5l-1.5-0.5l-1.6-0.6l-1.6-0.6l-1.6-0.6
		l-1.6-0.6l-1.6-0.6l-1.6-0.6l-1.6-0.7l-1.6-0.7l-1.6-0.7l-1.6-0.7l-1.6-0.7l-1.7-0.7l-1.7-0.7l-1.7-0.8l-1.7-0.8l-3.4-1.6l-3.4-1.6
		l-3.5-1.6l-3.5-1.7l-3.5-1.7l-3.6-1.7l-3.6-1.7l-0.9-0.4l-6.4-3.1l-3.7-1.8l-3.7-1.8l-3.8-1.8l-3.8-1.8l-3.8-1.8l-3.9-1.8l-3.9-1.8
		l-3.9-1.8l-2-0.9l-2-0.9l-2-0.9l-2-0.9l-2-0.9l-2-0.9l-2-0.9l-2-0.9l-2-0.8l-2-0.8l-2-0.8l-2.1-0.8l-2.1-0.8l-2.1-0.8l-2.1-0.8
		l-2.1-0.8l-2.1-0.8l-2.1-0.8l-2.1-0.8l-2.1-0.7l-2.1-0.7l-2.1-0.7l-2.1-0.7l-2.1-0.7l-2.1-0.7l-2.1-0.7l-2.1-0.6l-2.1-0.6l-2.1-0.6
		l-2.1-0.6l-2.2-0.6l-2.2-0.6l-2.2-0.5l-2.2-0.5l-2.2-0.5l-2.2-0.5l-2.2-0.5l-2.2-0.5l-2.2-0.4l-2.2-0.4l-2.2-0.4l-2.2-0.4l-2.2-0.4
		l-2.2-0.3l-2.2-0.3l-2.2-0.3l-2.2-0.3l-2.2-0.3l-2.2-0.2l-2.2-0.2l-2.2-0.2l-1.1-0.1l-1.1-0.1l-1.1-0.1l-1.1-0.1l-1.1-0.1l-1.1,0
		l-1.1,0l-1.1,0l-1.1,0l-1.1,0l-1.9,0h-1.9l-1.9,0l-1.9,0l-2,0.1l-2,0.1l-2,0.1l-1,0.1l-1,0.1l-1,0.1l-1,0.1l-1,0.1l-1,0.1l-1,0.1
		l-1,0.1l-1,0.1l-1,0.1l-1,0.1l-1,0.1l-1,0.2l-1,0.2l-1,0.2l-1,0.2l-0.3,0.1l-0.7,0.1l-1,0.2l-1,0.2l-1,0.2l-1,0.2l-1,0.2l-1,0.2
		l-0.9,0.2l-0.9,0.3l-0.9,0.3l-0.9,0.3l-0.9,0.3l-0.9,0.3l-0.9,0.3l-0.9,0.3l-0.9,0.3l-0.9,0.3l-0.9,0.3l-0.9,0.3l-0.9,0.4l-0.9,0.4
		l-0.9,0.4l-0.9,0.4l-0.9,0.4l-0.9,0.4l-0.9,0.4l-0.8,0.4l-0.8,0.4l-0.8,0.4l-0.8,0.4l-0.8,0.5l-0.8,0.5l-0.8,0.5l-0.8,0.5l-0.8,0.5
		l-0.8,0.5l-0.8,0.5l-0.8,0.5L34,406l-0.7,0.6l-0.7,0.6l-0.7,0.6l-0.7,0.6l-0.7,0.6l-0.7,0.6l-0.7,0.6l-0.7,0.6l-0.7,0.7l-0.6,0.7
		l-0.6,0.7l-0.6,0.7l-0.6,0.7l-0.6,0.7l-0.6,0.7l-0.6,0.8l-0.6,0.8l-0.5,0.8l-0.5,0.8l-0.5,0.8l-0.5,0.8l-0.5,0.8l-0.5,0.9l-0.5,0.9
		l-0.5,0.9l-0.4,0.9l-0.4,0.9l-0.4,0.9l-0.4,0.9l-0.4,1l-0.4,1l-0.4,1l-0.3,1l-0.3,1l-0.3,1l-0.3,1l-0.3,1.1l-0.3,1.1l-0.2,1.1
		l-0.2,1.1l-0.2,1.1l-0.2,1.1l-0.2,1.2l-0.2,1.2l-0.1,1.2l-0.1,1.2l-0.1,1.2l-0.1,1.2l-0.1,1.3l-0.1,1.3l0,1.3l0,1.2v0.1l0,1.3
		l0,1.4l0.1,1.4l0.1,1.4l0.1,1.4l0.1,1.4l0.1,1.4l0.1,0.8l0.1,0.8l0.1,0.7l0.2,0.8l0.2,0.7l0.2,0.7l0.2,0.7l0.2,0.7l0.3,0.7l0.3,0.7
		l0.3,0.7l0.3,0.7l0.3,0.7l0.4,0.7l0.4,0.7l0.4,0.7l0.4,0.7l0.4,0.7l0.5,0.7l0.5,0.7l0.5,0.7l0.5,0.7l0.5,0.7l0.5,0.7l0.6,0.7
		l0.6,0.6l0.6,0.6l0.6,0.6l0.6,0.6l0.6,0.6l0.6,0.6l0.6,0.6l0.7,0.6l0.7,0.6l0.7,0.6l0.7,0.6l0.7,0.6l0.7,0.6l0.7,0.6l0.7,0.6
		l0.7,0.6l0.8,0.6l0.8,0.6l0.8,0.6l0.8,0.5l0.8,0.5l0.8,0.5l0.8,0.5l0.8,0.5l0.8,0.5l0.8,0.5l0.8,0.5l0.8,0.5l0.8,0.5l0.8,0.5
		l0.8,0.5l1.7,1l1.7,0.9l1.7,0.9l1.7,0.9l1.7,0.9l1.7,0.8l1.7,0.8l1.7,0.8l1.6,0.8L60.6,507.2l1.6,0.7l1.5,0.7l-1.5-0.6L60.6,507.2z
		"/>
	<path class="st2" d="M797,431c-15.6-29-74.8-15.7-74.8-15.7l17-42.9c4.6-11.4,19.1-14.5,27.8-6c17.2,16.8,44.3,40.4,70.2,51.9
		c9,4,13.3,14.2,9.1,23.1c-11.1,23.8-28.3,67.5-25.1,102.6c0.8,9.1-7.1,16.5-16.1,15.3c-169.1-23.1-245,130.2-245,130.2
		s10.9-97.4,105-156.1c33.5-20.9,47.4-12,56.5-11.6c23.8,0.8,51.6-2.2,65.4-18.7C796.4,491.7,812.6,460,797,431z"/>
	<path class="st2" d="M268.5,440.6c0,0,22.6,19,53.4,25.3c30.8,6.3,73,20.1,128.1,77.2c20.3,21,38.2,62.6,47.1,85.5
		c0.8,2,3.9,1.4,3.7-0.8c-2.9-35.1-19.7-135.7-118.3-165.7C283.6,455.7,287,448,268.5,440.6z"/>
	<g transform="matrix(1,0,0,1,5.68434e-14,0.00332827)">
		<path class="st1" d="M29.8,211.2l-0.8,0.7l-0.8,0.7l-0.8,0.7l-0.8,0.7l-0.8,0.7l-0.8,0.7l-0.8,0.7l-0.8,0.7l-0.8,0.7l-0.8,0.7
			l-0.7,0.7l-0.7,0.8l-0.7,0.8l-0.7,0.8l-0.7,0.8l-0.7,0.8l-0.7,0.8l-0.7,0.8l-0.6,0.8l-0.6,0.8l-0.6,0.8l-0.6,0.8l-0.6,0.8
			l-0.6,0.8l-0.6,0.8l-0.6,0.8l-0.5,0.8l-0.5,0.8l-0.5,0.8l-0.5,0.8L8.8,235l-0.5,0.8l-0.5,0.9l-0.4,0.9l-0.4,0.9l-0.4,0.9l-0.4,0.9
			l-0.4,0.9l-0.4,0.9l-0.3,0.9l-0.3,0.9l-0.3,0.9l-0.3,0.9L4,246.4l-0.3,0.9l-0.2,0.9l-0.2,0.9L3.1,250l-0.2,0.9l-0.2,0.9l-0.1,0.9
			l-0.1,0.9l-0.1,0.5l-0.1,0.4l-0.1,0.9l-0.1,0.9l0,0.9l0,0.9v0.9l0,1l0,1l0.1,1l0.1,1l0.1,1l0.1,1l0.1,1l0.2,1l0.2,1l0.2,1l0.2,1
			l0.2,1l0.3,1l0.3,1l0.3,1l0.3,1l0.4,1l0.4,1l0.4,1l0.4,1l0.4,1l0.5,1l0.5,1l0.5,1l0.5,1l0.6,1l0.6,1l0.6,1l0.6,1l0.7,1l0.7,1
			l0.7,1l0.7,1l0.8,1l0.8,1l0.8,1.1l0.8,0.9l0.8,0.9l0.8,0.9l0.8,0.9l0.8,0.9l0.8,0.8l0.8,0.8l0.3,0.3l0.6,0.5l0.9,0.8l0.9,0.7
			l0.9,0.7l0.9,0.7l0.9,0.7l0.9,0.7l0.9,0.6l0.9,0.6l1,0.6l1,0.6l1,0.6l1,0.6l1,0.5l1,0.5l1,0.5l1,0.5l1,0.5l1.1,0.4l1.1,0.4
			l1.1,0.4l1.1,0.4l1.1,0.4l1.1,0.4l1.1,0.3l1.1,0.3l1.1,0.3l1.1,0.3l1.1,0.3l1.2,0.3l1.2,0.3l1.2,0.2l1.2,0.2l1.2,0.2l1.2,0.2
			l1.2,0.2l1.2,0.2l1.2,0.1l1.2,0.1l1.2,0.1l1.3,0.1l1.3,0.1l1.3,0.1l1.3,0.1l1.3,0l1.3,0l1.3,0H75l1.3,0l1.3,0l1.3,0l1.3-0.1
			l1.3-0.1l1.3-0.1l1.4-0.1l1.4-0.1l1.4-0.1l1.4-0.1l1.4-0.1l1.4-0.2l1.4-0.2l1.4-0.2l1.4-0.2l1.4-0.2l1.4-0.2l1.4-0.2l1.4-0.2
			l1.4-0.2l1.4-0.3l1.4-0.3l1.4-0.3l1.4-0.3l1.5-0.3l1.4-0.3l1.5-0.3l1.5-0.3l1.5-0.3l1.5-0.4l1.5-0.4l1.5-0.4l1.5-0.4l1.5-0.4
			l1.3-0.4l0.1,0l1.5-0.4l1.5-0.4l1.5-0.4l1.5-0.4l1.5-0.4l1.5-0.5l1.5-0.5l1.5-0.5l1.5-0.5l1.5-0.5l1.5-0.5l1.5-0.5l1.5-0.5
			l1.5-0.5l1.5-0.5l1.5-0.5l1.5-0.5l1.5-0.5l3-1.1l3-1.1l3-1.2l3-1.2l3-1.2l3-1.2l3-1.2l3-1.3l2.9-1.3l2.9-1.3l2.9-1.3l2.9-1.3
			l2.9-1.3l2.9-1.4l2.9-1.4l2.8-1.4l2.8-1.4l2.8-1.4l2.8-1.4l2.8-1.4l2.7-1.4l2.7-1.4l1-0.5l1.7-0.9l2.7-1.4l2.6-1.4l2.6-1.4
			l2.6-1.4l2.6-1.4l2.5-1.4l2.5-1.4l2.5-1.4l2.4-1.4l2.4-1.4l2.4-1.4l2.3-1.3l2.3-1.3l2.2-1.3l1-0.6l1.2-0.7l2.2-1.3l2.1-1.2
			l2.1-1.2l2-1.2l2-1.2l1.9-1.2l3.8-2.3l3.5-2.2l3.3-2.1l3.1-1.9l2.9-1.8l0.6-0.4l2.1-1.3l2.4-1.5l1.3-0.8l0.8-0.5l1.9-1.2l1.7-1
			l1.4-0.8l0.9-0.6l0.9-0.6l0.6-0.4l1.6-0.9l1.7-0.6l1.8-0.3l1.8,0.1l1.8,0.4l1.7,0.6l1.5,0.9l0.6,0.4l1.6,1.3l2.6,2l3.4,2.7l2,1.6
			l2.2,1.7l0.8,0.6l1.6,1.3l2.5,2.1l2.6,2.2l2.8,2.3l2.9,2.4l3,2.5l3.1,2.6l3.1,2.7l3.2,2.8l3.3,2.9l3.3,2.9l0,0l3.3,3l3.3,3.1
			l1.7,1.6l1.7,1.6l1.7,1.6l1.7,1.6l1.6,1.6l1.6,1.6l1.6,1.6l1.6,1.6l1.6,1.6l1.6,1.6l1.6,1.6l1.6,1.6l1.6,1.6l1.5,1.6l1.5,1.6
			l1.5,1.6l1.5,1.6l1.5,1.6l0.2,8.6l-8.6,0l-1.6-1.4l-1.6-1.4l-1.6-1.4l-1.6-1.4l-1.6-1.4l-1.7-1.4l-1.7-1.4L368,295l-1.7-1.4
			l-1.7-1.4l-1.7-1.4l-1.7-1.4l-1.8-1.4l-1.8-1.4l-1.8-1.4l-1.8-1.4l-1.8-1.4l-1.8-1.3l-3.5-2.7l-3.5-2.6l0,0l-3.5-2.6l-3.4-2.5
			l-3.3-2.5l-3.3-2.4l-3.2-2.3l-3.1-2.2l-3-2.2l-2.9-2.1l-2.7-1.9l-2.6-1.8l-1.6-1.1l-0.8-0.6l-2.2-1.6l-2-1.5l-2.4-1.7l-1.8,1.1
			l-0.9,0.5l-1.4,0.9L297,251l-2.1,1.3l-0.6,0.4l-3,1.8l-3.3,1.9l-3.5,2l-3.7,2.1l-3.9,2.2l-2,1.1l-2.1,1.1l-2.1,1.2l-2.2,1.2
			l-2.2,1.2l-2.3,1.2l-1.2,0.6l-1.1,0.6l-2.4,1.2l-2.4,1.2l-2.4,1.2l-2.5,1.2l-2.5,1.2l-2.6,1.3l-2.6,1.3l-2.6,1.3l-2.7,1.3
			l-2.7,1.3l-2.7,1.3l-2.8,1.3l-2.8,1.3l-2.8,1.3l-1.8,0.8l-1.1,0.5l-2.9,1.3l-2.9,1.3l-2.9,1.3l-2.9,1.2l-3,1.2l-3,1.2l-3,1.2
			l-3,1.2l-3,1.2l-3.1,1.2l-3.1,1.2l-3.1,1.2l-3.1,1.1l-3.1,1.1l-3.1,1.1l-3.1,1.1l-3.1,1.1l-3.1,1l-3.1,1l-3.1,1l-3.1,1l-3.1,0.9
			l-1.6,0.5l-1.6,0.5l-1.6,0.5l-1.6,0.4l-1.6,0.4l-1.6,0.4l-1.6,0.4l-1.6,0.4l-1.6,0.4l-1.6,0.4l-1.6,0.4l-1.6,0.4l-1.6,0.4
			l-1.6,0.4l-1.6,0.4l-1.6,0.4l-1.6,0.3l-1.6,0.3l-0.1,0l-1.4,0.3l-1.6,0.3l-1.6,0.3l-1.5,0.3l-1.5,0.3l-1.5,0.3l-1.5,0.3l-1.5,0.3
			l-1.5,0.2l-1.5,0.2l-1.5,0.2l-1.5,0.2l-1.5,0.2l-1.5,0.2l-1.5,0.2l-1.5,0.2l-1.5,0.2l-1.5,0.1l-1.5,0.1l-1.5,0.1l-1.5,0.1
			l-1.5,0.1L92,327l-1.5,0.1l-1.5,0.1l-1.5,0.1l-1.5,0l-1.4,0l-1.4,0h-1.4l-1.4,0l-1.4,0l-1.4,0l-1.4-0.1l-1.4-0.1l-1.4-0.1
			l-1.4-0.1l-1.4-0.1l-1.4-0.1l-1.4-0.1l-1.3-0.2l-1.3-0.2l-1.3-0.2l-1.3-0.2l-1.3-0.2l-1.3-0.2l-1.3-0.2l-1.3-0.3l-1.3-0.3
			l-1.3-0.3l-1.3-0.3l-1.3-0.3l-1.2-0.3l-1.2-0.4l-1.2-0.4l-1.2-0.4l-1.2-0.4l-1.2-0.4l-1.2-0.4l-1.2-0.5l-1.2-0.5l-1.2-0.5
			l-1.1-0.5l-1.1-0.5l-1.1-0.6l-1.1-0.6l-1.1-0.6l-1.1-0.6l-1.1-0.6l-1.1-0.6l-1-0.7l-1-0.7l-1-0.7l-1-0.7l-1-0.7l-1-0.8l-1-0.8
			l-0.9-0.8l-0.9-0.8l-0.9-0.8l-0.9-0.9l-0.9-0.9l-0.6-0.6l-0.3-0.3l-0.9-0.9l-0.8-0.9l-0.8-1l-0.8-1l-0.8-1l-0.8-1l-0.8-1l-0.8-1.1
			l-0.8-1.1l-0.8-1.1l-0.7-1.1l-0.7-1.1l-0.7-1.1L8.2,290l-0.6-1.1L7,287.7l-0.6-1.1l-0.5-1.1l-0.5-1.1l-0.5-1.1l-0.5-1.1l-0.4-1.1
			l-0.4-1.1L3.1,279l-0.4-1.1l-0.3-1.1l-0.3-1.1l-0.3-1.1l-0.3-1.1l-0.3-1.1l-0.2-1l-0.2-1l-0.2-1l-0.2-1l-0.1-1l-0.1-1l-0.1-1
			l-0.1-1l-0.1-1l0-1l0-1l0-1l0-1l0.1-1l0.1-1l0.1-1l0.1-1l0.1-1l0.1-0.5l0.1-0.5l0.2-1l0.2-1l0.2-0.9l0.2-0.9l0.2-0.9l0.3-0.9
			l0.3-0.9l0.3-0.9l0.3-0.9l0.3-0.9l0.3-0.9l0.4-0.9l0.4-0.9l0.4-0.9l0.4-0.9l0.4-0.9l0.4-0.9l0.5-0.9l0.5-0.9l0.5-0.9l0.5-0.9
			l0.5-0.8l0.5-0.8l0.5-0.8l0.6-0.8l0.6-0.8l0.6-0.8l0.6-0.8l0.6-0.8l0.6-0.8l0.6-0.8l0.7-0.8l0.7-0.8l0.7-0.8l0.7-0.8l0.7-0.8
			l0.7-0.8l0.7-0.8l0.7-0.7l0.8-0.7l0.8-0.7l0.8-0.7l0.8-0.7l0.8-0.7l0.8-0.7l0.8-0.7l0.8-0.7l0.8-0.7l0.8-0.7l0.8-0.7l0.9-0.7
			L29.8,211.2L29.8,211.2L29.8,211.2z"/>
	</g>
	<path class="st2" d="M268.5,240.1c19.1-13.2,34.9-33,47.7-54.3c2.1-3.5,7.6-2.7,8.4,1.3c3.7,18.5-4.4,41.8-12.8,52.9"/>
</g>
<g id="图层_2">
	<g>
		<path class="st3" d="M92.3,327.3l-7.8,13.5l-7.8-13.5h-26l33.8,58.5l33.8-58.5H92.3z"/>
		<path class="st4" d="M92.3,327.3l-7.8,13.5l-7.8-13.5H64.3l20.3,35.1l20.3-35.1H92.3z"/>
	</g>
</g>
</svg>
