<?xml version="1.0" standalone="no"?>
<!DOCTYPE svg PUBLIC "-//W3C//DTD SVG 20010904//EN"
 "http://www.w3.org/TR/2001/REC-SVG-20010904/DTD/svg10.dtd">
<svg version="1.0" xmlns="http://www.w3.org/2000/svg"
 width="972.000000pt" height="972.000000pt" viewBox="0 0 972.000000 972.000000"
 preserveAspectRatio="xMidYMid meet">
<metadata>
Created by potrace 1.14, written by Peter Selinger 2001-2017
</metadata>
<g transform="translate(0.000000,972.000000) scale(0.100000,-0.100000)"
fill="#000000" stroke="none">
<path d="M4835 9114 c-87 -20 -94 -22 -134 -35 -142 -46 -329 -181 -451 -325
-71 -82 -155 -222 -165 -272 -2 -12 -7 -27 -10 -32 -3 -5 -8 -18 -10 -27 -2
-10 -13 -53 -23 -95 -11 -43 -17 -80 -14 -83 14 -14 -33 -15 -63 -1 -19 9 -38
16 -41 16 -4 -1 -10 2 -13 7 -3 4 -26 19 -51 32 -25 14 -47 27 -50 30 -10 12
-223 121 -244 126 -12 2 -38 12 -75 26 -22 9 -118 32 -181 44 -106 20 -260 25
-345 12 -95 -16 -131 -23 -140 -27 -3 -1 -9 -4 -15 -5 -5 -1 -11 -3 -12 -4 -2
-2 -13 -4 -26 -7 -13 -2 -33 -10 -45 -16 -12 -7 -24 -13 -27 -13 -9 -1 -105
-50 -110 -56 -3 -4 -20 -15 -38 -26 -18 -11 -57 -41 -85 -66 -72 -63 -201
-170 -267 -220 -30 -23 -56 -45 -58 -49 -2 -5 -8 -8 -14 -8 -5 0 -15 -6 -22
-12 -18 -18 -44 -37 -176 -129 -63 -44 -124 -87 -135 -96 -11 -10 -21 -16 -23
-15 -4 4 -56 -31 -64 -43 -4 -5 -8 -6 -8 -1 0 5 -8 2 -17 -6 -21 -18 -173
-106 -288 -168 -44 -23 -96 -52 -115 -64 -19 -11 -36 -20 -37 -19 -7 4 -43
-11 -43 -18 0 -5 -4 -9 -9 -9 -5 0 -60 -24 -123 -54 -112 -53 -161 -75 -415
-187 -68 -30 -217 -102 -223 -109 -3 -3 -38 -27 -79 -55 -41 -27 -89 -63 -108
-81 -18 -17 -33 -29 -33 -27 0 2 -25 -24 -55 -59 -66 -76 -119 -173 -141 -259
-47 -183 39 -423 205 -573 19 -17 42 -38 51 -46 27 -26 181 -99 245 -116 86
-22 87 -22 125 -23 21 -1 30 -4 22 -9 -6 -5 -40 -7 -75 -7 -34 1 -65 0 -69 -2
-4 -2 15 -42 43 -89 27 -47 49 -90 49 -95 0 -5 5 -9 10 -9 6 0 10 -6 10 -14 0
-7 7 -19 15 -26 8 -7 12 -16 9 -21 -3 -5 -2 -9 3 -9 4 0 13 -10 19 -23 5 -12
45 -82 88 -156 50 -87 73 -136 66 -141 -6 -4 -28 -8 -48 -8 -20 -1 -80 -13
-132 -27 -112 -29 -124 -33 -127 -35 -2 -2 -6 -3 -10 -5 -111 -31 -263 -154
-321 -257 -17 -30 -62 -141 -62 -153 0 -3 -1 -6 -1 -7 -1 -2 -2 -14 -3 -28 -1
-14 -4 -29 -7 -35 -8 -13 -3 -211 6 -250 10 -46 53 -119 101 -169 23 -25 46
-46 49 -46 3 0 14 -8 24 -17 37 -33 50 -43 61 -43 5 0 10 -5 10 -11 0 -5 4 -7
10 -4 5 3 10 2 10 -3 0 -5 13 -15 30 -22 16 -7 30 -16 30 -21 0 -5 3 -8 8 -7
4 1 30 -9 57 -23 28 -14 77 -36 110 -49 33 -13 64 -27 70 -32 5 -4 19 -8 31
-8 12 0 24 -4 26 -9 1 -5 14 -11 28 -13 14 -1 27 -5 30 -8 7 -7 252 -92 268
-93 6 0 12 -5 12 -10 0 -6 3 -8 6 -5 13 13 632 -262 654 -291 3 -3 25 -17 50
-31 47 -25 107 -63 126 -79 7 -6 15 -7 18 -4 3 4 6 2 6 -3 0 -5 15 -18 33 -29
17 -10 53 -35 78 -54 25 -20 60 -47 79 -61 74 -56 245 -224 298 -292 20 -27
40 -48 44 -48 4 0 8 -6 8 -14 0 -8 4 -16 9 -18 23 -8 206 -301 343 -548 25
-45 48 -85 90 -157 11 -21 26 -47 32 -58 37 -66 179 -278 222 -332 19 -23 34
-44 34 -47 0 -14 236 -259 330 -342 73 -64 338 -254 354 -254 3 0 24 -13 48
-29 56 -38 317 -171 334 -171 8 0 14 -4 14 -8 0 -5 19 -15 43 -22 23 -8 47
-17 52 -21 39 -27 438 -164 535 -184 8 -2 15 -4 15 -5 0 -1 7 -3 15 -5 117
-29 148 -37 165 -42 11 -3 28 -6 38 -6 9 -1 17 -4 17 -7 0 -3 8 -6 18 -6 23
-1 92 -13 115 -20 11 -3 29 -8 40 -9 12 -2 38 -6 57 -9 19 -3 46 -8 60 -10 14
-3 43 -8 65 -11 23 -3 50 -7 62 -9 12 -3 50 -7 85 -11 35 -3 82 -8 104 -11 23
-3 69 -7 101 -8 33 -2 64 -5 69 -8 12 -8 680 -1 719 6 17 3 56 8 89 11 58 4
110 11 156 20 13 3 40 7 60 10 34 5 49 8 115 20 17 4 68 15 115 27 47 11 92
21 100 23 8 2 17 4 20 6 3 1 10 3 15 4 20 2 181 58 225 77 25 11 54 23 65 28
52 19 255 125 255 132 0 4 3 7 8 6 10 -4 142 75 142 85 0 4 4 6 9 3 4 -3 16 3
26 14 10 11 22 20 27 20 5 0 14 5 21 10 25 22 148 110 152 110 5 0 28 18 69
55 13 11 40 34 61 50 72 57 130 110 280 260 142 141 188 191 260 280 17 21 38
47 47 59 10 11 21 26 25 31 5 6 22 28 39 50 18 22 66 92 108 155 42 63 81 120
86 127 6 7 10 19 10 28 0 8 4 15 9 15 11 0 172 316 164 324 -4 3 0 6 7 6 7 0
11 3 8 6 -4 3 4 29 17 57 24 57 65 170 70 196 2 9 4 17 5 19 2 1 3 5 5 10 1 4
4 14 8 22 9 23 48 162 51 185 2 11 8 38 14 60 6 22 14 60 17 84 3 23 7 46 9
50 2 3 7 27 10 51 4 25 9 59 13 75 8 36 9 42 18 125 4 36 9 79 11 95 26 224
25 686 -1 975 -2 19 -4 35 -5 35 -1 0 -3 20 -5 45 -1 25 -3 45 -4 45 -2 0 -4
18 -7 40 -4 38 -17 124 -30 190 -3 17 -7 41 -8 55 -3 20 -17 90 -41 200 -2 8
-13 56 -26 105 -12 50 -22 96 -22 103 0 6 -4 12 -9 12 -4 0 -8 12 -8 26 0 14
-4 33 -10 43 -5 10 -11 29 -14 42 -4 23 -30 107 -43 139 -4 8 -7 17 -8 20 -22
73 -31 98 -41 115 -7 11 -13 23 -14 28 -1 18 -8 39 -42 114 -20 47 -35 85 -36
93 -1 14 -86 177 -100 193 -8 9 -12 17 -8 17 4 0 2 6 -4 13 -10 11 -40 56 -65
97 -6 9 -20 30 -33 46 -90 118 -112 146 -152 194 -51 62 -415 430 -424 430 -3
0 -14 8 -24 18 -21 20 -87 76 -152 127 -25 20 -52 42 -61 49 -34 28 -209 157
-304 224 -55 39 -104 75 -110 80 -5 4 -25 17 -42 27 -18 11 -33 23 -33 27 0 4
-4 8 -9 8 -10 0 -127 75 -173 109 -14 12 -30 21 -34 21 -4 0 -22 11 -40 25
-18 14 -35 25 -38 25 -4 0 -62 36 -92 57 -13 10 -31 21 -124 78 -41 25 -84 51
-94 58 -100 64 -187 117 -191 117 -3 0 -24 12 -48 27 -23 15 -51 33 -62 39
-24 13 -51 29 -208 120 -65 38 -142 82 -170 98 -29 15 -63 36 -77 44 -14 9
-27 17 -30 17 -3 0 -49 26 -102 58 -53 31 -102 57 -107 57 -6 0 -11 5 -11 10
0 6 -5 10 -11 10 -5 0 -51 24 -102 54 -51 30 -95 53 -98 53 -4 -1 -15 5 -25
13 -11 8 -28 20 -39 26 -84 46 -191 110 -193 116 -2 5 -10 8 -17 8 -8 0 -31
11 -51 25 -20 14 -43 25 -50 25 -7 0 -14 4 -16 8 -9 22 -275 132 -353 145 -16
3 -52 10 -80 15 -71 15 -259 12 -330 -4z m-1745 -2495 c0 -4 9 -11 20 -14 11
-3 26 -12 32 -18 7 -7 54 -41 103 -77 79 -56 230 -168 275 -203 8 -7 47 -36
85 -66 39 -30 72 -58 73 -63 2 -4 8 -8 13 -8 16 0 46 -34 53 -60 7 -25 16 -47
38 -97 50 -112 195 -286 287 -345 25 -15 41 -28 35 -28 -5 0 -1 -5 9 -11 9 -5
17 -17 17 -25 0 -8 4 -22 9 -32 16 -28 51 -132 45 -132 -3 0 -2 -6 3 -12 4 -7
8 -17 9 -23 1 -5 9 -38 17 -71 14 -61 16 -216 2 -278 -11 -51 -47 -129 -82
-178 -36 -50 -132 -138 -151 -138 -6 0 -12 -4 -14 -9 -9 -24 -241 -114 -322
-125 -17 -3 -53 -9 -80 -14 -28 -6 -58 -9 -68 -7 -10 2 -18 1 -18 -3 0 -9
-172 -7 -220 2 -43 8 -160 36 -180 44 -8 3 -18 4 -22 4 -5 -1 -8 2 -8 6 0 5
-6 9 -12 10 -24 1 -54 10 -94 28 -21 9 -44 18 -51 20 -7 1 -27 9 -44 18 -18 9
-36 16 -40 16 -5 0 -37 14 -71 30 -34 17 -65 30 -70 30 -4 0 -39 15 -78 34
-39 19 -74 35 -78 36 -4 1 -27 11 -52 22 -122 55 -151 67 -230 99 -47 19 -88
38 -92 44 -4 5 -8 6 -8 2 0 -5 -6 -5 -12 0 -7 4 -17 8 -23 10 -12 2 -201 72
-230 84 -16 7 -105 34 -150 45 -5 2 -35 10 -65 19 -30 9 -68 18 -85 21 -16 3
-48 10 -70 16 -22 6 -49 11 -60 13 -11 2 -33 5 -50 8 -16 3 -52 8 -80 12 -27
3 -75 9 -105 13 -30 4 -121 7 -203 7 -81 -1 -147 0 -147 1 0 4 34 64 59 106
48 79 91 157 91 166 0 6 4 12 8 14 6 2 172 283 172 291 0 1 -34 2 -75 2 -41
-1 -75 3 -75 7 0 4 10 8 23 9 33 1 68 6 102 13 17 3 44 8 60 11 17 3 37 8 45
10 8 2 31 7 50 10 19 3 56 12 83 20 26 8 47 11 47 8 0 -3 6 0 14 6 8 6 18 11
22 9 5 -1 26 4 47 11 21 7 44 14 50 15 7 2 19 6 27 9 8 3 69 23 135 45 105 35
238 84 300 111 11 5 45 19 75 31 140 57 688 327 710 350 3 3 26 17 53 30 26
14 47 29 47 33 0 5 4 6 8 3 5 -3 18 3 29 13 11 10 33 25 49 34 26 14 32 14 56
-1 16 -9 28 -20 28 -23z m-2203 -821 c-19 -33 -38 -60 -43 -60 -9 -1 -63 90
-64 108 0 6 27 10 70 11 l70 0 -33 -59z"/>
</g>
</svg>
